<svg xmlns="http://www.w3.org/2000/svg" viewBox="0 0 24 24" fill="none" aria-hidden="true">
  <path d="M12 2.5c.55 0 1.02.34 1.18.86l.55 1.82a7.4 7.4 0 0 1 2.28 1.32l1.78-.62c.52-.18 1.08.1 1.26.62l.68 1.78c.18.52-.08 1.08-.58 1.28l-1.72.68a7.5 7.5 0 0 1 .18 2.56 7.5 7.5 0 0 1-.18 2.56l1.72.68c.5.2.76.76.58 1.28l-.68 1.78c-.18.52-.74.8-1.26.62l-1.78-.62a7.4 7.4 0 0 1-2.28 1.32l-.55 1.82c-.16.52-.63.86-1.18.86s-1.02-.34-1.18-.86l-.55-1.82a7.4 7.4 0 0 1-2.28-1.32l-1.78.62c-.52.18-1.08-.1-1.26-.62l-.68-1.78c-.18-.52.08-1.08.58-1.28l1.72-.68a7.5 7.5 0 0 1-.18-2.56c0-.88.06-1.72.18-2.56l-1.72-.68c-.5-.2-.76-.76-.58-1.28l.68-1.78c.18-.52.74-.8 1.26-.62l1.78.62a7.4 7.4 0 0 1 2.28-1.32l.55-1.82c.16-.52.63-.86 1.18-.86Z" stroke="#d4dee8" stroke-width="1.85" stroke-linecap="round" stroke-linejoin="round"/>
  <circle cx="12" cy="12" r="3" stroke="#d4dee8" stroke-width="1.85"/>
</svg>
