<svg xmlns="http://www.w3.org/2000/svg" viewBox="0 0 24 24" role="img" aria-hidden="true">
  <g fill="#EF4444">
    <circle cx="9.4" cy="4.9" r="1.85"/>
    <path d="M9.4 6.75c-.98 0-1.62.64-1.84 1.58L6.55 12.05l1.58.22.47-1.72c.18-.7.72-1.15 1.45-1.15.92 0 1.6.74 1.7 1.74l.6 3.35 1.58-.18-.7-3.85c-.17-.95-.78-1.56-1.62-1.66l1.05-2c.34.25.75.38 1.2.38.98 0 1.72-.72 1.72-1.68 0-.96-.74-1.68-1.72-1.68-.76 0-1.4.43-1.7 1.08l-1 1.88-4.95-.38z"/>
    <rect x="3.4" y="16.35" width="2.05" height="5.9" rx=".2" transform="rotate(-38 4.42 19.3)"/>
    <rect x="6.35" y="16.35" width="2.05" height="5.9" rx=".2" transform="rotate(-38 7.37 19.3)"/>
    <rect x="9.3" y="16.35" width="2.05" height="5.9" rx=".2" transform="rotate(-38 10.32 19.3)"/>
    <rect x="12.25" y="16.35" width="2.05" height="5.9" rx=".2" transform="rotate(-38 13.27 19.3)"/>
    <rect x="15.2" y="16.35" width="2.05" height="5.9" rx=".2" transform="rotate(-38 16.22 19.3)"/>
  </g>
</svg>
